<?xml version="1.0" ?><!-- Uploaded to: SVG Repo, www.svgrepo.com, Generator: SVG Repo Mixer Tools -->
<svg width="800px" height="800px" viewBox="0 0 64 64" data-name="Lovely Valentine's day" id="Lovely_Valentine_s_day" xmlns="http://www.w3.org/2000/svg"><defs><style>.cls-1{fill:#e29e9a;}.cls-2{fill:#623905;}.cls-3{fill:#f6e3a6;}.cls-4{fill:#fff0cc;}.cls-5{fill:#d26274;}</style></defs><title/><circle class="cls-1" cx="32" cy="32" r="28"/><path class="cls-2" d="M38.5,34A1.5,1.5,0,0,1,37,32.5V27.54a10.874,10.874,0,0,1-2.72-5.07A1.945,1.945,0,0,0,32.35,21H30.5A1.5,1.5,0,0,0,29,22.5a1.5,1.5,0,0,1-3,0V20.28a4.181,4.181,0,0,0-.99-2.63c-.12-.15-.24-.31-.36-.47a2.464,2.464,0,0,1-.22-.34,8.426,8.426,0,0,1-.8-1.55,2.3,2.3,0,0,1-.12-.34,3.738,3.738,0,0,1-.17-.54,5.5,5.5,0,0,1-.17-.7,1.979,1.979,0,0,0-1.97-1.55h-.06a.66.66,0,0,0-.14.01c-.2,0-.4.02-.6.04-.25.02-.5.06-.74.1s-.49.1-.73.17a5.831,5.831,0,0,0-.71.22,6.972,6.972,0,0,0-1.22.54c-.06.03-.11.06-.17.09A9.549,9.549,0,0,0,12.6,25a9.806,9.806,0,0,0,2.23,3.43l6.79,6.79,7.55,7.57a4,4,0,0,0,5.67,0L40,37.62V32.5A1.5,1.5,0,0,1,38.5,34Z"/><path class="cls-2" d="M32.005,44.962A4.99,4.99,0,0,1,28.463,43.5l-14.34-14.36a10.79,10.79,0,0,1-2.457-3.778,10.679,10.679,0,0,1-.654-4.425,10.5,10.5,0,0,1,3.907-7.51,10.633,10.633,0,0,1,1.418-.964l.1-.052.119-.062a7.646,7.646,0,0,1,1.351-.6,6.591,6.591,0,0,1,.783-.241c.231-.068.5-.125.778-.181.3-.05.577-.094.855-.116.189-.019.395-.038.6-.042a1.9,1.9,0,0,1,.218-.011,3,3,0,0,1,3.011,2.358,4.552,4.552,0,0,0,.145.6,3.532,3.532,0,0,0,.147.473,2.492,2.492,0,0,0,.1.286,7.521,7.521,0,0,0,.727,1.416c.019.032.038.064.054.1a1.442,1.442,0,0,0,.135.2c.107.144.22.295.333.436A5.143,5.143,0,0,1,27,20.28V22.5a.5.5,0,0,0,1,0A2.5,2.5,0,0,1,30.5,20h1.85a2.926,2.926,0,0,1,2.906,2.25,9.88,9.88,0,0,0,2.466,4.6A1,1,0,0,1,38,27.54V32.5a.5.5,0,0,0,1,0,1,1,0,0,1,2,0v5.12a1,1,0,0,1-.292.706l-5.16,5.17A5,5,0,0,1,32.005,44.962ZM21,13.17a4.921,4.921,0,0,0-.5.035c-.241.02-.463.056-.676.091-.19.039-.4.082-.615.144a5.21,5.21,0,0,0-.624.191,6.24,6.24,0,0,0-1.093.48l-.105.056-.1.055a8.608,8.608,0,0,0-1.106.757,8.51,8.51,0,0,0-3.169,6.088,8.653,8.653,0,0,0,.528,3.582,8.782,8.782,0,0,0,2,3.074L29.878,42.084a3.012,3.012,0,0,0,4.255,0L39,37.206V34.95a2.577,2.577,0,0,1-.5.05A2.5,2.5,0,0,1,36,32.5V27.932a11.9,11.9,0,0,1-2.695-5.243A.953.953,0,0,0,32.35,22H30.5a.5.5,0,0,0-.5.5,2.5,2.5,0,0,1-5,0V20.28a3.2,3.2,0,0,0-.766-2c-.131-.164-.259-.334-.385-.5a4.03,4.03,0,0,1-.283-.432,9.482,9.482,0,0,1-.868-1.694,2.908,2.908,0,0,1-.152-.436,3.675,3.675,0,0,1-.182-.589,5.392,5.392,0,0,1-.18-.752.975.975,0,0,0-.984-.715A1.016,1.016,0,0,1,21,13.17Z"/><path class="cls-3" d="M40,32.5v5.12l-5.16,5.17a4,4,0,0,1-5.67,0l-7.55-7.57-6.79-6.79A9.806,9.806,0,0,1,12.6,25a9.553,9.553,0,0,1,4.23-11.67c.06-.03.11-.06.17-.09a6.972,6.972,0,0,1,1.22-.54,5.831,5.831,0,0,1,.71-.22c.24-.07.48-.12.73-.17s.49-.08.74-.1c.2-.02.4-.04.6-.04a.66.66,0,0,1,.14-.01h.06a1.979,1.979,0,0,1,1.97,1.55,5.5,5.5,0,0,0,.17.7,3.738,3.738,0,0,0,.17.54,2.3,2.3,0,0,0,.12.34,8.426,8.426,0,0,0,.8,1.55,2.464,2.464,0,0,0,.22.34c.12.16.24.32.36.47A4.181,4.181,0,0,1,26,20.28V22.5a1.5,1.5,0,0,0,3,0A1.5,1.5,0,0,1,30.5,21h1.85a1.945,1.945,0,0,1,1.93,1.47A10.874,10.874,0,0,0,37,27.54V32.5a1.5,1.5,0,0,0,3,0Z"/><path class="cls-2" d="M32.005,44.962A4.99,4.99,0,0,1,28.463,43.5l-14.34-14.36a10.79,10.79,0,0,1-2.457-3.778,10.679,10.679,0,0,1-.654-4.425,10.5,10.5,0,0,1,3.907-7.51,10.633,10.633,0,0,1,1.418-.964l.1-.052.119-.062a7.646,7.646,0,0,1,1.351-.6,6.591,6.591,0,0,1,.783-.241c.231-.068.5-.125.778-.181.3-.05.577-.094.855-.116.189-.019.395-.038.6-.042a1.9,1.9,0,0,1,.218-.011,3,3,0,0,1,3.011,2.358,4.552,4.552,0,0,0,.145.6,3.532,3.532,0,0,0,.147.473,2.492,2.492,0,0,0,.1.286,7.521,7.521,0,0,0,.727,1.416c.019.032.038.064.054.1a1.442,1.442,0,0,0,.135.2c.107.144.22.295.333.436A5.143,5.143,0,0,1,27,20.28V22.5a.5.5,0,0,0,1,0A2.5,2.5,0,0,1,30.5,20h1.85a2.926,2.926,0,0,1,2.906,2.25,9.88,9.88,0,0,0,2.466,4.6A1,1,0,0,1,38,27.54V32.5a.5.5,0,0,0,1,0,1,1,0,0,1,2,0v5.12a1,1,0,0,1-.292.706l-5.16,5.17A5,5,0,0,1,32.005,44.962ZM21,13.17a4.921,4.921,0,0,0-.5.035c-.241.02-.463.056-.676.091-.19.039-.4.082-.615.144a5.21,5.21,0,0,0-.624.191,6.24,6.24,0,0,0-1.093.48l-.105.056-.1.055a8.608,8.608,0,0,0-1.106.757,8.51,8.51,0,0,0-3.169,6.088,8.653,8.653,0,0,0,.528,3.582,8.782,8.782,0,0,0,2,3.074L29.878,42.084a3.012,3.012,0,0,0,4.255,0L39,37.206V34.95a2.577,2.577,0,0,1-.5.05A2.5,2.5,0,0,1,36,32.5V27.932a11.9,11.9,0,0,1-2.695-5.243A.953.953,0,0,0,32.35,22H30.5a.5.5,0,0,0-.5.5,2.5,2.5,0,0,1-5,0V20.28a3.2,3.2,0,0,0-.766-2c-.131-.164-.259-.334-.385-.5a4.03,4.03,0,0,1-.283-.432,9.482,9.482,0,0,1-.868-1.694,2.908,2.908,0,0,1-.152-.436,3.675,3.675,0,0,1-.182-.589,5.392,5.392,0,0,1-.18-.752.975.975,0,0,0-.984-.715A1.016,1.016,0,0,1,21,13.17Z"/><path class="cls-4" d="M32.005,40.968a1.006,1.006,0,0,1-.714-.3L23.744,33.1l-6.793-6.793A6.81,6.81,0,0,1,15.4,23.924a6.555,6.555,0,0,1,2.912-7.986l.138-.072a4.043,4.043,0,0,1,.716-.319l.123-.044a2.869,2.869,0,0,1,.372-.113c.249-.071.408-.1.571-.135.069-.011.143-.023.219-.033a6.208,6.208,0,0,0,.222.709,5.13,5.13,0,0,0,.189.52,11.427,11.427,0,0,0,1,1.948,5.5,5.5,0,0,0,.354.538c.169.227.309.414.451.59a1.292,1.292,0,0,1,.33.753V22.3a4.653,4.653,0,0,0,3.46,4.584,4.486,4.486,0,0,0,3.962-.966,1.367,1.367,0,0,1,2.1.448l.011.021A13.313,13.313,0,0,0,33.6,28.134a2.04,2.04,0,0,1,.4,1.188V32.5a4.517,4.517,0,0,0,1.77,3.571.984.984,0,0,1,.069,1.471l-3.123,3.129A1,1,0,0,1,32.005,40.968Z"/><path class="cls-2" d="M52,21.63a9.495,9.495,0,0,1-2.82,6.8l-4.13,4.13A7,7,0,0,0,43,37.51V40.5a1.5,1.5,0,0,1-3,0v-8a1.5,1.5,0,0,1-3,0V27.54a10.874,10.874,0,0,1-2.72-5.07A1.945,1.945,0,0,0,32.35,21H30.5A1.5,1.5,0,0,0,29,22.5a1.5,1.5,0,0,1-3,0V20.28a4.181,4.181,0,0,0-.99-2.63c-.12-.15-.24-.31-.36-.47a3.956,3.956,0,0,1-.22-.34,8.426,8.426,0,0,1-.8-1.55,2.3,2.3,0,0,1-.12-.34,3.738,3.738,0,0,1-.17-.54,5.5,5.5,0,0,1-.17-.7,1.979,1.979,0,0,0-1.97-1.55,10.564,10.564,0,0,1,7.64,3.1l3.17,3.17,3.18-3.19a10.054,10.054,0,0,1,12.38-1.68A9.494,9.494,0,0,1,52,21.63Z"/><path class="cls-2" d="M41.5,43A2.5,2.5,0,0,1,39,40.5V34.95a2.577,2.577,0,0,1-.5.05A2.5,2.5,0,0,1,36,32.5V27.932a11.9,11.9,0,0,1-2.695-5.243A.953.953,0,0,0,32.35,22H30.5a.5.5,0,0,0-.5.5,2.5,2.5,0,0,1-5,0V20.28a3.2,3.2,0,0,0-.766-2c-.131-.164-.259-.334-.385-.5a5.161,5.161,0,0,1-.283-.433,9.308,9.308,0,0,1-.868-1.693,2.908,2.908,0,0,1-.152-.436,3.675,3.675,0,0,1-.182-.589,5.392,5.392,0,0,1-.18-.752.975.975,0,0,0-.984-.715,1,1,0,0,1-.021-2,11.645,11.645,0,0,1,8.368,3.393l2.462,2.462,2.473-2.481a11.059,11.059,0,0,1,13.625-1.817,10.583,10.583,0,0,1,1.774,16.426l-4.124,4.125A6.043,6.043,0,0,0,44,37.51V40.5A2.5,2.5,0,0,1,41.5,43ZM41,32.5v8a.5.5,0,0,0,1,0V37.51a8.058,8.058,0,0,1,2.343-5.657l4.13-4.13A8.585,8.585,0,0,0,47.031,14.4,9.049,9.049,0,0,0,35.9,15.947l-3.179,3.189a1,1,0,0,1-.707.294h0a1,1,0,0,1-.707-.293l-3.17-3.17a9.643,9.643,0,0,0-3.972-2.393,4.6,4.6,0,0,0,.135.544,3.532,3.532,0,0,0,.147.473,2.492,2.492,0,0,0,.1.286,7.521,7.521,0,0,0,.727,1.416,3.459,3.459,0,0,0,.192.3c.1.139.217.29.33.431A5.143,5.143,0,0,1,27,20.28V22.5a.5.5,0,0,0,1,0A2.5,2.5,0,0,1,30.5,20h1.85a2.926,2.926,0,0,1,2.906,2.25,9.88,9.88,0,0,0,2.466,4.6A1,1,0,0,1,38,27.54V32.5a.5.5,0,0,0,1,0,1,1,0,0,1,2,0Z"/><path class="cls-5" d="M21,12.17V34.6l-4-4V13.24a6.972,6.972,0,0,1,1.22-.54,5.831,5.831,0,0,1,.71-.22c.24-.07.48-.12.73-.17s.49-.08.74-.1C20.6,12.19,20.8,12.17,21,12.17Z"/><path class="cls-2" d="M21,35.6a1,1,0,0,1-.707-.293l-4-4A1,1,0,0,1,16,30.6V13.24a1,1,0,0,1,.508-.87,7.871,7.871,0,0,1,1.4-.619,6.591,6.591,0,0,1,.783-.241c.231-.068.5-.125.778-.181.3-.05.577-.094.855-.116A6.667,6.667,0,0,1,21,11.17a1,1,0,0,1,1,1V34.6a1,1,0,0,1-1,1Zm-3-5.414,2,2V13.268l-.176.028c-.19.039-.4.082-.615.144a5.21,5.21,0,0,0-.624.191c-.21.071-.4.145-.585.225Z"/><path class="cls-5" d="M35.2,25H12.6a9.6,9.6,0,0,1-.59-4H26v1.5a1.5,1.5,0,0,0,3,0A1.5,1.5,0,0,1,30.5,21h1.85a1.945,1.945,0,0,1,1.93,1.47A10.477,10.477,0,0,0,35.2,25Z"/><path class="cls-2" d="M35.2,26H12.6a1,1,0,0,1-.937-.649,10.67,10.67,0,0,1-.651-4.417,1,1,0,0,1,1-.934H26a1,1,0,0,1,1,1v1.5a.5.5,0,0,0,1,0A2.5,2.5,0,0,1,30.5,20h1.85a2.926,2.926,0,0,1,2.906,2.25,9.5,9.5,0,0,0,.832,2.289A1,1,0,0,1,35.2,26Zm-5.7-2h4.182a11.437,11.437,0,0,1-.376-1.311A.953.953,0,0,0,32.35,22H30.5a.5.5,0,0,0-.5.5A2.491,2.491,0,0,1,29.5,24ZM13.322,24H25.5a2.491,2.491,0,0,1-.5-1.5V22H13A8.755,8.755,0,0,0,13.322,24Z"/><circle class="cls-2" cx="41" cy="49" r="2"/><path class="cls-2" d="M41,52a3,3,0,1,1,3-3A3,3,0,0,1,41,52Zm0-4a1,1,0,1,0,1,1A1,1,0,0,0,41,48Z"/></svg>