<?xml version="1.0" encoding="iso-8859-1"?>
<!-- Uploaded to: SVG Repo, www.svgrepo.com, Generator: SVG Repo Mixer Tools -->
<svg fill="#000000" height="800px" width="800px" version="1.1" id="Layer_1" xmlns="http://www.w3.org/2000/svg" xmlns:xlink="http://www.w3.org/1999/xlink" 
	 viewBox="0 0 512 512" xml:space="preserve">
<g>
	<g>
		<path d="M303.257,0c-14.734-0.019-27.762,7.276-35.675,18.452c8.097,4.965,14.937,11.832,19.958,20.212
			c8.413,14.043,10.911,30.992,6.082,47.514c27.26,6.111,53.163-14.567,53.2-42.497C346.853,19.588,327.349,0.032,303.257,0z"/>
	</g>
</g>
<g>
	<g>
		<path d="M92.568,340.746l-3.34,24.507l-72.592,63.858c-10.141,8.922-11.13,24.375-2.209,34.517
			c8.924,10.145,24.38,11.126,34.516,2.209l76.304-67.124v-49.774L92.568,340.746z"/>
	</g>
</g>
<g>
	<g>
		<path d="M142.39,353.236v134.037h-0.001c0,13.507,10.949,24.457,24.457,24.457s24.457-10.951,24.457-24.457V365.499
			L142.39,353.236z"/>
	</g>
</g>
<g>
	<g>
		<path d="M495.867,62.767c-0.188-0.038-0.399-0.073-0.622-0.108c0.194-0.116,0.376-0.228,0.536-0.334
			c4.482-2.971,5.707-9.012,2.737-13.492c-2.971-4.482-9.012-5.707-13.493-2.736c-0.16,0.106-0.334,0.23-0.516,0.363
			c0.056-0.219,0.104-0.428,0.143-0.615c1.068-5.269-2.336-10.407-7.606-11.476c-5.269-1.068-10.407,2.336-11.476,7.606
			c-0.038,0.188-0.073,0.399-0.108,0.622c-0.116-0.194-0.228-0.376-0.333-0.536c-2.971-4.482-9.012-5.707-13.492-2.737
			c-4.482,2.971-5.707,9.012-2.737,13.493c0.105,0.16,0.23,0.334,0.364,0.516c-0.219-0.056-0.427-0.104-0.615-0.143
			c-5.269-1.068-10.407,2.336-11.476,7.606c-1.068,5.269,2.336,10.407,7.606,11.476c0.188,0.038,0.399,0.073,0.622,0.108
			c-0.194,0.115-0.376,0.228-0.536,0.333c-4.482,2.971-5.707,9.012-2.737,13.494c0.79,1.193,1.801,2.147,2.939,2.859
			c-7.218,11.706-12.651,25.074-16.215,39.891c-2.671-8.558-5.934-16.93-9.84-24.868c-1.516-3.082-6.215-1.109-5.066,2.132
			c7.175,20.244,10.067,42.528,9.918,63.359c-0.006,0.242-0.016,0.482-0.019,0.724c-0.004,0.24-0.004,0.475-0.007,0.714
			l-56.648,16.341l-12.14-16.652l0.041-31.466c0.023-17.523-13.24-31.747-29.624-31.768c-42.229-0.866-39.965-0.908-42.604-0.641
			c-11.302,14.078-28.384,22.319-46.557,22.319c-20.305,0-40.063-10.305-51.299-29.059c-0.063-0.106-0.119-0.214-0.182-0.32
			c-19.882,0.139-38.405,11.719-46.967,30.536L60.183,301.004c-2.958,6.506,0.321,14.033,6.668,15.623
			c30.857,7.736,110.419,27.682,141.255,35.413c6.388,1.601,12.789-3.509,13.25-10.63l0.314-4.854
			c-4.295-6.059-6.469-13.392-6.045-21.07l0.175-55.208c0,0-11.866-3.198-21.146-5.7c-9.048-2.439-15.526-9.7-17.433-18.253
			l-17.537-79.387l34.729,70.974c2.428,4.961,6.878,8.631,12.212,10.069l87.638,23.624c10.206,2.752,20.712-3.293,23.463-13.499
			c2.751-10.208-3.293-20.712-13.5-23.463l-79.246-21.362l-30.91-63.17l29.564,35.622l5.988-25.321l1.881,34.803l36.402,9.812
			v-44.594l8.03,46.759l33.273,8.969c20.414,5.504,32.502,26.513,26.999,46.927c-5.502,20.414-26.513,32.502-46.927,26.999
			l-7.599-2.049c0,0-0.304,11.847,0.22,37.449c0.936,16.332-10.105,30.573-25.498,34.195v137.592
			c0,13.656,11.07,24.725,24.725,24.725s24.725-11.069,24.725-24.725V301.251l15.269,0.242v185.782c0,7.5-2.069,14.515-5.66,20.514
			c3.942,2.659,8.693,4.211,13.806,4.211c13.656,0,24.725-11.069,24.725-24.725l0.977-259.247c3.329,0.834,6.728,0.756,9.95-0.173
			l61.51-17.742c1.811,12.585,3.924,20.623,4.084,21.224c0.977,3.659,4.737,5.831,8.394,4.853c3.658-0.977,5.832-4.735,4.854-8.394
			c-0.077-0.286-2.23-8.603-3.972-21.536l7.945-2.292c10.158-2.929,16.015-13.539,13.086-23.697
			c-2.228-7.721-8.895-12.947-16.424-13.728c4.803-13.94,11.206-27.656,19.339-39.949c1.891-2.858-2.179-5.926-4.401-3.293
			c-7.948,9.412-14.884,19.945-20.788,30.915c1.941-19.623,7.158-40.371,18.442-58.426c1.329,2.433,3.678,4.286,6.607,4.881
			c5.269,1.068,10.407-2.336,11.476-7.606c0.038-0.188,0.073-0.399,0.108-0.622c0.116,0.194,0.228,0.376,0.333,0.536
			c2.971,4.482,9.012,5.707,13.492,2.736c4.482-2.971,5.707-9.012,2.737-13.492c-0.105-0.16-0.23-0.334-0.364-0.516
			c0.219,0.056,0.428,0.105,0.615,0.143c5.269,1.068,10.407-2.336,11.476-7.606C504.542,68.973,501.138,63.836,495.867,62.767z
			 M481.45,69.776c-1.246,6.145-7.239,10.117-13.384,8.871c-6.145-1.246-10.117-7.239-8.871-13.384
			c1.246-6.145,7.238-10.117,13.384-8.871C478.725,57.639,482.696,63.631,481.45,69.776z"/>
	</g>
</g>
<g>
	<g>
		<path d="M229.621,264.006v51.482c0,10.571,8.571,19.141,19.141,19.141c10.571,0,19.141-8.571,19.141-19.141v-41.162
			L229.621,264.006z"/>
	</g>
</g>
<g>
	<g>
		<path d="M246.546,28.406c-22.627-5.672-45.571,8.072-51.243,30.699c-6.684,26.652,13.485,52.521,41.002,52.521
			c18.914,0,36.132-12.798,40.94-31.977C282.918,57.021,269.174,34.079,246.546,28.406z"/>
	</g>
</g>
</svg>