<?xml version="1.0" encoding="iso-8859-1"?>
<!-- Uploaded to: SVG Repo, www.svgrepo.com, Generator: SVG Repo Mixer Tools -->
<svg fill="#000000" height="800px" width="800px" version="1.1" id="Layer_1" xmlns="http://www.w3.org/2000/svg" xmlns:xlink="http://www.w3.org/1999/xlink" 
	 viewBox="0 0 512.001 512.001" xml:space="preserve">
<g>
	<g>
		<circle cx="336.77" cy="42.141" r="42.141"/>
	</g>
</g>
<g>
	<g>
		<path d="M195.19,32.313c-21.238,0-38.549,16.787-39.406,37.815l70.145,14.279l6.806-0.539c1.23-3.816,1.902-7.883,1.902-12.108
			C234.637,49.974,216.975,32.313,195.19,32.313z"/>
	</g>
</g>
<g>
	<g>
		<path d="M390.125,238.662c-6.946,8.044-17.167,13.198-28.631,13.352c-43.478,0.522-79.069,0.625-79.069,0.625l0.01,234.961
			c0,13.475,10.924,24.399,24.399,24.399c13.475,0,24.399-10.924,24.399-24.399V292.57h10.534V487.6
			c0,13.475,10.924,24.399,24.399,24.399c13.475,0,24.399-10.924,24.399-24.399C390.567,480.95,390.125,245.307,390.125,238.662z"/>
	</g>
</g>
<g>
	<g>
		<path d="M439.3,145.59c-0.133-26.399-21.718-47.876-48.118-47.876c-2.561,0-95.647-0.025-96.764,0.064l-69.64,5.509
			l-93.082-18.948c-11.007-2.239-21.74,4.865-23.981,15.868c-2.24,11.004,4.865,21.74,15.868,23.981l95.887,19.52
			c1.336,0.272,2.695,0.408,4.056,0.408c1.171,0-3.125,0.311,58.896-4.596c0,11.845,0,22.5,0,36.835
			c3.419-0.463-1.952-0.27,78.039-1.341c11.803-0.147,22.451,5.003,29.661,13.352v-42.427c0-2.323,1.862-4.216,4.184-4.255
			c2.323-0.039,4.249,1.789,4.327,4.11c0,0.001,0,0.001,0,0.002c0.682,135.755,0.75,149.379,0.75,149.379
			c0.056,11.195,9.148,20.231,20.33,20.231c0.035,0,0.07,0,0.104,0c11.23-0.056,20.288-9.205,20.231-20.435L439.3,145.59z"/>
	</g>
</g>
<g>
	<g>
		<path d="M360.77,194.481l-76.511,0.835c-5.007-14.057-12.759-36.145-12.759-36.145c-18.683,1.478-32.843,2.618-43.335,3.463
			c-4.148,0.334-8.287,0.078-12.366-0.748c-36.378-7.365-88.825-17.897-88.825-17.897s-6.389,16.171-53.843,144.227
			c-3.653,9.857,1.468,20.802,11.34,24.413c9.869,3.609,20.802-1.466,24.413-11.34c0.266-0.724,22.582-61.784,37.826-104.938
			c-1.022,8.356,2.228-9.346-27.034,141.737c-1.268,6.547,3.778,12.596,10.38,12.596c4.095,0,9.027,0,14.524,0v138.478
			c0,12.615,10.225,22.84,22.84,22.84s22.84-10.225,22.84-22.84V350.682c3.283,0,6.578,0,9.861,0V489.16
			c0,12.615,10.225,22.84,22.84,22.84c12.615,0,22.84-10.225,22.84-22.84V350.682c5.499,0,10.431,0,14.524,0
			c6.636,0,11.647-6.057,10.38-12.596c-19.361-100.667-27.331-144.161-27.331-144.161s7.991,22.492,9.609,26.997
			c2.689,7.494,9.827,12.671,18.124,12.606l90.079-0.982c10.511-0.115,18.939-8.729,18.825-19.24
			C379.897,202.929,371.454,194.399,360.77,194.481z"/>
	</g>
</g>
</svg>