<?xml version="1.0" encoding="iso-8859-1"?>
<!-- Uploaded to: SVG Repo, www.svgrepo.com, Generator: SVG Repo Mixer Tools -->
<svg fill="#000000" height="800px" width="800px" version="1.1" id="Layer_1" xmlns="http://www.w3.org/2000/svg" xmlns:xlink="http://www.w3.org/1999/xlink" 
	 viewBox="0 0 511.991 511.991" xml:space="preserve">
<g>
	<g>
		<path d="M316.97,308.459v119.665h0.001c0,7.686-2.362,14.83-6.394,20.748c1.888,0.54,3.875,0.845,5.935,0.845
			c11.926,0,21.594-9.668,21.594-21.594V303.161L316.97,308.459z"/>
	</g>
</g>
<g>
	<g>
		<path d="M258.433,323.135v104.989c0,11.926,9.668,21.594,21.594,21.594s21.594-9.668,21.594-21.594V312.308L258.433,323.135z"/>
	</g>
</g>
<g>
	<g>
		<path d="M383.415,263.657l-76.408-168.1c-4.642-10.212-15.208-15.747-25.295-13.218c-14.388,3.608-23.505,5.893-36.47,9.143
			c-10.066,2.524-16.792,12.416-16.068,23.588l0.715,11.04l14.44-13.761l-23.157,39.005l-45.94-12.644
			c-9-2.481-18.303,2.81-20.78,11.808c-2.477,8.999,2.81,18.303,11.809,20.78l58.325,16.056c7.309,2.04,15.159-1.078,19.066-7.653
			l0.079-0.133l0.069-0.117l29.594-49.846l-14.676,54.718l22.119-3.086c19.08-2.662,36.707,10.647,39.37,29.728
			c2.663,19.081-10.647,36.707-29.728,39.37l-52.075,7.266l2.703,41.736c0.408,6.299,6.073,10.797,11.699,9.385
			c27.227-6.826,97.476-24.438,124.72-31.269C383.147,276.043,386.019,269.389,383.415,263.657z"/>
	</g>
</g>
<g>
	<g>
		<path d="M207.936,83.771c-11.076-5.906-19.88-15.7-24.461-27.857c-4.221-1.568-8.785-2.431-13.552-2.436
			c-21.575-0.029-39.088,17.438-39.117,39.014c-0.019,15.241,8.697,28.446,21.417,34.901c7.757-5.198,17.641-7.126,27.35-4.454
			l10.673,2.938c11.194-6.857,18.672-19.192,18.691-33.281C208.941,89.559,208.587,86.609,207.936,83.771z"/>
	</g>
</g>
<g>
	<g>
		<path d="M302.933,213.375c-1.332-9.541-10.146-16.198-19.684-14.864l-61.535,8.586l-6.034-5.228l-53.759-14.799
			c-14.648-4.033-24.477-17.343-24.431-32.153c-6.537,5.206-9.854,12.85-9.876,21.154c-0.016,6.133,0,313.78,0,313.78
			c0,12.229,10.264,22.142,22.494,22.142c12.229,0,22.143-9.913,22.143-22.142V323.476h13.674v166.374
			c0,6.717-1.853,12.999-5.069,18.371c3.531,2.381,7.785,3.771,12.363,3.771c12.229,0,22.579-9.913,22.579-22.142V260.694
			c-9.731,1.747-17.754-2.237-22.361-8.865l-39.92-57.669l51.342,44.487c3.81,3.302,8.857,4.788,13.832,4.093l69.381-9.68
			C297.609,231.729,304.264,222.915,302.933,213.375z"/>
	</g>
</g>
<g>
	<g>
		<circle cx="232.714" cy="37.295" r="37.295"/>
	</g>
</g>
</svg>