<?xml version="1.0" encoding="iso-8859-1"?>
<!-- Uploaded to: SVG Repo, www.svgrepo.com, Generator: SVG Repo Mixer Tools -->
<svg height="800px" width="800px" version="1.1" id="Layer_1" xmlns="http://www.w3.org/2000/svg" xmlns:xlink="http://www.w3.org/1999/xlink" 
	 viewBox="0 0 511.999 511.999" xml:space="preserve">
<path style="fill:#EC589B;" d="M503.383,270.65c-38.314,35.12-82.648,62.612-130.6,81.304
	c-27.032,10.535-55.213,18.278-84.118,23.011c-10.822,1.769-21.736,2.665-32.662,2.665c-10.925,0-21.839-0.896-32.662-2.665
	c-40.095-6.571-78.811-18.921-114.976-36.487C72.211,320.9,38.573,298.119,8.634,270.661c-0.011-0.011-0.023-0.011-0.023-0.011
	s0,0,0.011-0.012l114.723-111.139c28.71-27.802,72.366-33.225,106.992-13.281l25.665,14.774l25.654-14.774
	c34.638-19.944,78.294-14.521,106.992,13.281L503.383,270.65z"/>
<path style="fill:#D3468D;" d="M135.534,255.948c0,0,85.456,6.29,117.339-25.593C252.873,230.355,165.732,225.75,135.534,255.948z"
	/>
<path style="fill:#EFDFDE;" d="M329.01,255.948l-27.22-14.328c-28.662-15.088-62.919-15.088-91.581,0l-27.22,14.328l27.22,14.328
	c28.662,15.088,62.919,15.088,91.581,0L329.01,255.948z"/>
<g>
	<path style="fill:#D3468D;" d="M372.783,351.953c-27.032,10.535-55.213,18.278-84.118,23.011
		c-10.822,1.769-21.736,2.665-32.662,2.665c-10.925,0-21.839-0.896-32.662-2.665c-40.095-6.571-78.811-18.921-114.976-36.487
		C72.211,320.9,38.573,298.119,8.634,270.661c2.401,1.379,168.466,96.124,364.091,81.292H372.783z"/>
	<path style="fill:#D3468D;" d="M256.003,160.993L256.003,160.993c-1.624,11.167-12.396,18.53-23.417,16.103
		c-21.117-4.649-39.787-22.643-75.511,2.255c-56.42,39.325-147.292,90.746-148.452,91.286l114.723-111.139
		c28.71-27.802,72.366-33.225,106.992-13.281L256.003,160.993z"/>
</g>
<path style="fill:#F67BB8;" d="M256.004,160.993L256.004,160.993c1.624,11.167,12.396,18.53,23.417,16.103
	c21.117-4.649,39.787-22.643,75.511,2.255c56.42,39.325,147.292,90.746,148.452,91.286L388.661,159.498
	c-28.71-27.802-72.366-33.225-106.992-13.281L256.004,160.993z"/>
<path d="M111.298,255.948c0,4.758,3.857,8.616,8.616,8.616h60.946l25.335,13.337c15.592,8.208,32.698,12.312,49.803,12.312
	c17.106,0,34.211-4.105,49.805-12.312l25.335-13.337h60.946c4.76,0,8.616-3.858,8.616-8.616s-3.857-8.616-8.616-8.616H331.14
	l-25.335-13.337c-31.186-16.417-68.424-16.416-99.607,0l-25.335,13.337h-60.946C115.155,247.332,111.298,251.19,111.298,255.948z
	 M214.222,249.243c26.159-13.77,57.394-13.771,83.554,0l12.736,6.705l-12.736,6.704c-26.16,13.77-57.393,13.771-83.554,0
	l-12.736-6.704L214.222,249.243z"/>
<path d="M428.006,315.669c-43.56,25.535-90.911,42.624-140.738,50.793c-20.749,3.401-41.788,3.401-62.537,0
	c-75.736-12.416-145.895-45.567-203.481-96.051l108.096-104.718c8.916-8.637,19.405-14.964,31.175-18.805
	c4.524-1.476,6.994-6.34,5.518-10.865c-1.477-4.523-6.334-6.995-10.865-5.518c-14.281,4.661-27.005,12.335-37.819,22.81
	L2.62,264.466c-1.704,1.652-2.653,3.934-2.619,6.307c0.032,2.374,1.043,4.629,2.793,6.232
	c61.303,56.194,137.084,93.009,219.152,106.462c11.299,1.853,22.677,2.779,34.055,2.779c11.378,0,22.757-0.926,34.056-2.779
	c51.925-8.512,101.272-26.321,146.666-52.932c4.105-2.407,5.482-7.686,3.077-11.791C437.389,314.64,432.11,313.263,428.006,315.669z
	"/>
<path d="M509.379,264.466L394.644,153.315c-31.297-30.317-79.526-36.306-117.286-14.566L256,151.046l-21.359-12.297
	c-12.159-7.001-25.386-11.247-39.313-12.621c-4.731-0.468-8.954,2.994-9.421,7.729c-0.466,4.736,2.993,8.953,7.729,9.421
	c11.477,1.132,22.381,4.633,32.407,10.405l25.658,14.773c2.661,1.531,5.937,1.533,8.598,0l25.657-14.773
	c31.131-17.924,70.893-12.987,96.697,12.009l108.095,104.717c-12.876,11.279-26.527,21.805-40.679,31.363
	c-3.944,2.663-4.981,8.019-2.32,11.963c1.665,2.465,4.382,3.795,7.149,3.795c1.659,0,3.335-0.478,4.814-1.476
	c17.38-11.737,34.032-24.875,49.494-39.048c1.749-1.604,2.76-3.859,2.793-6.232S511.084,266.118,509.379,264.466z"/>
</svg>