<?xml version="1.0" encoding="iso-8859-1"?>
<!-- Uploaded to: SVG Repo, www.svgrepo.com, Generator: SVG Repo Mixer Tools -->
<svg fill="#000000" height="800px" width="800px" version="1.1" id="Layer_1" xmlns="http://www.w3.org/2000/svg" xmlns:xlink="http://www.w3.org/1999/xlink" 
	 viewBox="0 0 512 512" xml:space="preserve">
<g>
	<g>
		<circle cx="143.965" cy="60.004" r="40.124"/>
	</g>
</g>
<g>
	<g>
		<path d="M268.244,284.582c-0.315-0.869-31.924-87.352-45.846-127.862c-9.005-26.199-24.108-39.484-44.896-39.484
			c-29.119,0-38.012,0-67.078,0c-20.371,0-31.503,10.071-41.326,18.957c0,0-31.721,28.148-49.279,43.901
			c-8.092,7.254-8.687,19.73-1.334,27.721l44.012,47.838c4.727,5.138,11.889,7.451,18.983,5.723l-14.328,73.979
			c-1.29,6.658,3.843,12.812,10.558,12.812c4.124,0,9.081,0,14.605,0v140.434c0,12.923,10.475,23.399,23.399,23.399
			s23.399-10.476,23.399-23.399V348.167c3.228,0,6.467,0,9.696,0v140.434c0,12.923,10.475,23.399,23.399,23.399
			s23.399-10.476,23.399-23.399V348.167c5.526,0,10.484,0,14.605,0c6.751,0,11.848-6.161,10.558-12.812
			c-29.744-153.573-26.491-135.934-27.42-143.529c15.499,43.86,37.997,105.413,38.265,106.146
			c3.698,10.111,14.889,15.316,25.01,11.618C266.741,305.893,271.942,294.696,268.244,284.582z M88.312,226.111l-27.734-30.145
			c2.774-2.475,37.58-33.449,37.58-33.449L88.312,226.111z"/>
	</g>
</g>
<g>
	<g>
		<path d="M498.661,135.423c0-15.587-13.161-28.222-28.747-28.222h-51.68c-15.587,0-28.222,12.635-28.222,28.222v33.719
			l10.625-2.032l27.154-20.356l-27.307,36.5l-62.881,12.023c0.114-5.382,0.432-10.833,0.974-16.302
			c1.396-14.081,4.269-28.263,8.986-41.572c1.156-3.262-3.578-5.273-5.115-2.152c-3.942,8.012-7.237,16.464-9.933,25.104
			c-3.598-14.957-9.082-28.453-16.369-40.271c1.148-0.721,2.169-1.683,2.966-2.886c2.998-4.525,1.762-10.623-2.762-13.621
			c-0.161-0.107-0.345-0.22-0.541-0.338c0.226-0.035,0.439-0.07,0.628-0.108c5.319-1.078,8.757-6.266,7.678-11.585
			c-1.079-5.319-6.266-8.757-11.585-7.678c-0.19,0.038-0.4,0.088-0.62,0.144c0.135-0.184,0.26-0.36,0.367-0.521
			c2.998-4.525,1.761-10.623-2.762-13.621c-4.525-2.998-10.623-1.761-13.621,2.762c-0.107,0.161-0.22,0.345-0.337,0.541
			c-0.035-0.226-0.07-0.438-0.109-0.628c-1.078-5.319-6.266-8.757-11.585-7.678s-8.758,6.266-7.678,11.585
			c0.038,0.19,0.088,0.4,0.144,0.621c-0.184-0.135-0.36-0.26-0.521-0.367c-4.525-2.998-10.623-1.761-13.621,2.762
			c-2.998,4.525-1.762,10.623,2.762,13.621c0.161,0.107,0.345,0.22,0.541,0.336c-0.226,0.035-0.438,0.07-0.628,0.108
			c-5.319,1.078-8.757,6.266-7.678,11.585s6.266,8.757,11.585,7.678c0.19-0.038,0.4-0.088,0.621-0.144
			c-0.135,0.184-0.26,0.36-0.368,0.521c-2.998,4.525-1.761,10.623,2.762,13.621c4.525,2.998,10.623,1.761,13.621-2.762
			c0.106-0.161,0.22-0.345,0.337-0.541c0.035,0.226,0.07,0.438,0.108,0.628c1.08,5.319,6.266,8.757,11.585,7.678
			c2.953-0.599,5.323-2.466,6.665-4.917c10.961,17.567,16.509,38.108,18.573,58.879c-5.828-10.815-12.871-21.565-20.935-31.115
			c-2.239-2.652-6.355,0.435-4.443,3.323c5.498,8.31,10.214,17.263,14.188,26.497c2.1,4.879,3.989,9.836,5.678,14.818
			c-10.686,3.032-17.472,13.775-15.346,24.891c1.847,9.664,9.854,16.585,19.175,17.491c-1.262,8.561-2.816,15.773-3.529,18.467
			c-0.987,3.693,1.208,7.487,4.9,8.474c3.693,0.988,7.487-1.208,8.474-4.899c1.186-4.458,3.074-13.516,4.465-23.881l81.566-15.597
			c5.306-1.015,10.042-3.975,13.278-8.301l32.335-43.223l-19.661,52.705c-4.554,12.206-15.536,12.945-22.979,14.365l-29.267,5.704
			v242.118c-0.001,13.476,11.483,24.4,24.959,24.401c0.001,0,0.001,0,0.002,0c13.475,0,24.398-10.923,24.399-24.398l0.015-194.468
			h10.007c-0.171,1.843-0.151-11.529,0.432,194.535c0.038,13.452,10.955,24.33,24.398,24.33c0.022,0,0.047,0,0.07,0
			c13.476-0.038,23.844-10.994,23.806-24.468C498.39,391.874,498.661,184.581,498.661,135.423z M292.926,109.568
			c-6.204,1.258-12.253-2.751-13.511-8.954c-1.258-6.204,2.751-12.253,8.954-13.511c6.204-1.258,12.253,2.751,13.511,8.954
			C303.14,102.261,299.13,108.309,292.926,109.568z"/>
	</g>
</g>
<g>
	<g>
		<circle cx="447.148" cy="44.9" r="44.9"/>
	</g>
</g>
</svg>